<?xml version="1.0" encoding="utf-8"?>
<!-- Generator: Adobe Illustrator 23.1.0, SVG Export Plug-In . SVG Version: 6.00 Build 0)  -->
<svg version="1.1" id="Layer_1" xmlns="http://www.w3.org/2000/svg" xmlns:xlink="http://www.w3.org/1999/xlink" x="0px" y="0px"
	 viewBox="0 0 1897.72 426.36" style="enable-background:new 0 0 1897.72 426.36;" xml:space="preserve">
<style type="text/css">
	.st0{clip-path:url(#SVGID_2_);}
	.st1{fill:#FFFFFF;}
</style>
<g>
	<defs>
		<rect id="SVGID_1_" x="-20.29" width="419" height="452"/>
	</defs>
	<clipPath id="SVGID_2_">
		<use xlink:href="#SVGID_1_"  style="overflow:visible;"/>
	</clipPath>
	<g class="st0">
		<path d="M313.76,7.4c8.3,32.09,26.58,54.92,61.23,62.21c-2.14,4.99-4.21,9.6-6.11,14.29c-12.84,31.74-17.32,64.33-8.39,97.81
			c3.51,13.15,8.97,25.77,13.23,38.73c16.25,49.39,5.51,92.94-29.23,130.82c-20.56,22.42-46.97,34.49-76.3,40.79
			c-17.89,3.84-35.79,7.69-53.69,11.48c-4.73,1-8.53,3.26-11.66,7.02c-3.27,3.93-6.94,7.52-10.77,11.61
			c-3.1-3.25-6.18-5.84-8.47-9.02c-5.2-7.21-12.7-9.58-20.84-11.34c-21.46-4.64-43.29-8.16-64.19-14.66
			c-45.75-14.22-76.66-44.61-90.65-90.78c-8.85-29.19-5.47-57.95,6.07-86.02c6.34-15.41,11.88-31.12,13.54-47.89
			c2.66-26.94-2.06-52.75-12.02-77.73c-1.96-4.93-4.18-9.75-6.46-15.04c34.45-7.27,53.1-29.92,61.27-63.24
			c18.31,15.41,36.5,30.3,61.58,29.3c24.64-0.99,43.55-13.96,60.82-32.77c2.82,3.36,5.07,6.7,7.95,9.38
			c13.89,12.94,29.87,21.54,49.13,23.33c13.57,1.26,25.8-2.75,37.07-9.61C295.91,20.55,304.33,14,313.76,7.4z M76.81,32.41
			c-1.13,2.37-2.39,5.05-3.69,7.71C64.95,56.7,52.87,69.34,35.71,76.65c-5.73,2.44-6.8,1.1-3.97,8.74
			c11.92,32.2,15.38,65.14,7.03,98.68c-2.96,11.9-7.46,23.47-11.85,34.97c-9.19,24.06-12.06,48.54-4.55,73.43
			c12.41,41.11,40.94,66.91,80.74,79.88c19.52,6.36,40.24,8.96,60.37,13.49c9.66,2.17,19.8,3.42,26.93,11.73
			c0.6,0.7,3.88,0.35,4.71-0.58c4.1-4.6,9.31-7.03,15.06-8.32c12.5-2.8,25.04-5.39,37.59-7.92c20.25-4.08,40.45-8.11,58.6-18.88
			c34.18-20.27,55.67-49.01,60.05-89.23c2.36-21.67-3.27-42.02-11.46-61.72c-15.3-36.81-17.32-74.25-6.2-112.45
			c1.89-6.48,4.29-12.8,6.55-19.52c-23.73-7.97-38.21-24.99-47.44-47.74c-1.84,1.33-3.16,2.28-4.48,3.22
			c-15.01,10.74-31.44,17.45-50.19,16.77c-22.01-0.79-40.99-9.34-57.47-23.64c-2.55-2.21-3.91-2.14-6.6,0.02
			c-5.68,4.57-11.58,9.07-17.97,12.52c-21.47,11.59-44.02,15.36-67.3,6.18C94.69,42.69,86.21,37.3,76.81,32.41z"/>
		<path class="st1" d="M76.81,32.41c9.39,4.89,17.87,10.28,27.05,13.9c23.28,9.18,45.84,5.41,67.3-6.18
			c6.39-3.45,12.29-7.95,17.97-12.52c2.69-2.16,4.05-2.23,6.6-0.02c16.49,14.3,35.47,22.85,57.47,23.64
			c18.75,0.68,35.18-6.03,50.19-16.77c1.32-0.94,2.63-1.89,4.48-3.22c9.24,22.75,23.71,39.78,47.44,47.74
			c-2.27,6.71-4.67,13.04-6.55,19.52c-11.12,38.19-9.1,75.64,6.2,112.45c8.19,19.7,13.82,40.05,11.46,61.72
			c-4.38,40.22-25.87,68.95-60.05,89.23c-18.15,10.77-38.35,14.79-58.6,18.88c-12.55,2.53-25.1,5.12-37.59,7.92
			c-5.74,1.29-10.96,3.71-15.06,8.32c-0.83,0.93-4.11,1.29-4.71,0.58c-7.13-8.32-17.27-9.56-26.93-11.73
			c-20.13-4.52-40.86-7.13-60.37-13.49c-39.8-12.97-68.33-38.77-80.74-79.88c-7.51-24.88-4.65-49.37,4.55-73.43
			c4.39-11.49,8.89-23.06,11.85-34.97c8.34-33.54,4.89-66.48-7.03-98.68c-2.83-7.64-1.76-6.3,3.97-8.74
			c17.15-7.31,29.24-19.95,37.41-36.54C74.43,37.46,75.68,34.78,76.81,32.41z M33.09,267.52c0.73,5.33,1.04,9.51,1.91,13.57
			c6.51,30.49,24.85,52.04,51.18,67.56c3.01,1.77,5.28,1.67,8.08-0.49c10.55-8.14,21.27-16.06,31.92-24.07
			c64.84-48.75,129.64-97.57,194.62-146.14c4.79-3.58,6.39-7.02,5.59-12.85c-3.42-24.86-0.36-49.18,7.26-72.96
			c1.02-3.17,0.11-4.6-2.33-6.59c-7.58-6.17-15.23-12.36-22-19.37c-3.49-3.61-5.17-3.91-9.14-0.91
			c-64.73,48.92-129.59,97.67-194.44,146.44c-23.03,17.32-46.11,34.58-69.11,51.94C35.07,264.84,33.93,266.58,33.09,267.52z
			 M111.45,358.12c0.21,0.6,0.43,1.19,0.64,1.79c18.26,3.65,36.56,7.13,54.77,11.04c8.22,1.76,16.84,2.77,23.56,8.84
			c0.66,0.6,2.64,0.24,3.75-0.26c4.2-1.85,8.1-4.75,12.46-5.8c13.75-3.3,27.65-5.96,41.5-8.85c15.97-3.32,31.9-6.59,46.59-14.28
			c45-23.55,67.79-71.52,49.87-121.36c-4.11-11.43-8.08-22.92-12.16-34.37c-0.2-0.55-0.78-0.96-1.51-1.81
			C257.63,248.18,184.54,303.15,111.45,358.12z M36.69,238.05c0.55,0.32,1.11,0.63,1.66,0.95
			c75.9-57.12,151.81-114.24,228.49-171.95c-1.87-0.53-2.18-0.69-2.5-0.7c-1-0.02-2-0.04-3,0.04c-24.13,1.83-45.67-5.57-65.5-18.67
			c-3.03-2-4.84-1.88-7.82,0.04c-32.23,20.71-65.78,26.35-101.12,8.03c-2.88-1.49-4.35-0.96-6.04,1.67
			c-6.94,10.78-15.62,19.98-26.59,26.67c-4.08,2.49-4.62,4.89-3.29,9.33c7.44,24.89,9.79,50.22,6.31,76.1
			c-2.31,17.18-7.7,33.36-13.92,49.39C40.93,225.24,38.9,231.68,36.69,238.05z"/>
		<path d="M33.09,267.52c0.84-0.93,1.98-2.68,3.55-3.86c23-17.36,46.08-34.62,69.11-51.94c64.84-48.77,129.71-97.52,194.44-146.44
			c3.97-3,5.65-2.7,9.14,0.91c6.77,7.01,14.42,13.2,22,19.37c2.44,1.98,3.34,3.42,2.33,6.59c-7.62,23.78-10.67,48.1-7.26,72.96
			c0.8,5.83-0.81,9.27-5.59,12.85c-64.98,48.57-129.78,97.39-194.62,146.14c-10.65,8.01-21.37,15.93-31.92,24.07
			c-2.8,2.16-5.07,2.26-8.08,0.49C59.85,333.13,41.51,311.58,35,281.09C34.13,277.03,33.82,272.85,33.09,267.52z"/>
		<path d="M111.45,358.12c73.09-54.97,146.19-109.94,219.46-165.05c0.73,0.85,1.32,1.26,1.51,1.81
			c4.08,11.45,8.05,22.93,12.16,34.37c17.92,49.84-4.87,97.81-49.87,121.36c-14.7,7.69-30.62,10.96-46.59,14.28
			c-13.85,2.88-27.75,5.54-41.5,8.85c-4.36,1.05-8.26,3.95-12.46,5.8c-1.11,0.49-3.09,0.85-3.75,0.26
			c-6.72-6.07-15.34-7.07-23.56-8.84c-18.21-3.91-36.5-7.39-54.77-11.04C111.87,359.31,111.66,358.72,111.45,358.12z"/>
		<path d="M36.69,238.05c2.21-6.37,4.24-12.81,6.67-19.09c6.22-16.02,11.61-32.21,13.92-49.39c3.48-25.89,1.13-51.21-6.31-76.1
			c-1.33-4.44-0.79-6.84,3.29-9.33c10.97-6.7,19.65-15.89,26.59-26.67c1.7-2.64,3.16-3.17,6.04-1.67
			c35.34,18.31,68.89,12.68,101.12-8.03c2.98-1.91,4.78-2.04,7.82-0.04c19.83,13.1,41.37,20.5,65.5,18.67c0.99-0.08,2-0.06,3-0.04
			c0.32,0.01,0.64,0.17,2.5,0.7C190.16,124.76,114.26,181.88,38.35,239C37.8,238.69,37.24,238.37,36.69,238.05z"/>
	</g>
</g>
<g>
	<path class="st1" d="M115.3,300.83c0.02,0.57-0.22,1.17-0.72,1.8c-0.6,0.74-2.48,2.35-5.64,4.85c-2.9,2.29-4.76,3.64-5.6,4.04
		c-0.7,0.32-1.15-0.05-1.37-1.12c-0.83-4.05-1.44-6.08-1.83-6.09c-0.33,0.03-3.05,2.07-8.15,6.11c-3.44,2.72-5.27,4.32-5.48,4.78
		c-0.33,0.78-0.66,2.79-1,6.03c-0.3,2.95-0.73,4.76-1.27,5.41c-0.68,0.8-2.99,2.75-6.91,5.86c-3.1,2.45-4.66,3.22-4.69,2.29
		c-0.02-0.83,1.95-12.83,5.93-36c4.32-25.07,6.66-38.82,7.02-41.26c0.21-1.4,0.47-2.23,0.79-2.49c0.55-0.43,1.39-1.02,2.54-1.77
		c1.15-0.75,2.01-1.34,2.57-1.79c0.55-0.43,1.35-1.13,2.41-2.08c1.06-0.95,1.85-1.64,2.38-2.05c0.38-0.3,0.76-0.06,1.11,0.74
		c1.09,2.56,4.34,11.75,9.74,27.56C112.55,291.58,115.27,299.97,115.3,300.83z M92.43,274.3c-0.38,1.74-1.01,5.35-1.88,10.84
		c-0.94,5.84-1.4,9.19-1.37,10.05c0.02,0.57,0.63,0.41,1.85-0.49c0.63-0.43,1.66-1.22,3.1-2.36c1.34-1.06,2.07-1.9,2.19-2.52
		c0.04-0.19,0.05-0.43,0.04-0.72c-0.03-1.05-0.59-3.58-1.66-7.6C93.66,277.65,92.9,275.24,92.43,274.3z"/>
	<path class="st1" d="M163.68,262.25c0.03,0.99-0.25,1.71-0.83,2.18l-10.75,8.51c-0.59,0.47-0.9,0.14-0.93-0.98
		c-0.1-3.22-0.17-8.11-0.21-14.67c-0.04-6.56-0.12-11.45-0.21-14.67c-0.03-0.92-0.13-1.35-0.32-1.27c-0.22,0.37-1.42,6.37-3.62,18
		c-1.29,6.83-2.57,13.64-3.86,20.44c-0.18,0.89-0.42,1.52-0.72,1.89c-0.1,0.11-0.5,0.45-1.21,1.01c-1.05,0.83-1.69,1.01-1.91,0.53
		c-1.2-2.64-2.79-6.61-4.78-11.89c-2.12-5.57-3.7-9.56-4.75-11.96c-0.04-0.13-0.14-0.23-0.29-0.31c-0.13,0.4-0.19,0.92-0.17,1.55
		c0.1,3.13,0.29,7.77,0.58,13.94c0.29,6.17,0.49,10.82,0.58,13.94c0.03,1.12-0.23,1.9-0.8,2.35l-10.15,8.03
		c-0.41,0.32-0.66,0.41-0.75,0.28c-0.1-0.14-0.15-0.46-0.17-0.97c-0.11-3.48-0.16-8.78-0.16-15.92c0-7.14-0.05-12.44-0.16-15.92
		c-0.11-3.7-0.43-10.55-0.94-20.57c-0.1-2.63-0.31-6.5-0.63-11.6l-0.05-0.79c-0.04-0.62,0.38-1.28,1.25-1.97
		c1.11-0.88,2.78-2.26,5.01-4.13c2.22-1.88,3.89-3.25,5.01-4.13c0.22-0.18,0.56,0.25,1,1.26l9.8,23.64
		c0.69,1.58,1.25,2.19,1.67,1.86c0.22-0.18,0.66-1.75,1.32-4.72c1.84-8.31,4.56-20.8,8.16-37.46c0.31-1.52,0.66-2.43,1.07-2.75
		c0.59-0.46,1.47-1.12,2.66-1.96c1.19-0.84,2.08-1.5,2.69-1.98c0.51-0.4,1.28-1.09,2.32-2.08c1.04-0.98,1.81-1.68,2.32-2.08
		c0.61-0.48,0.92-0.34,0.95,0.43c0.11,3.76,0.2,9.45,0.25,17.06c0.06,7.61,0.14,13.3,0.26,17.06c0.11,3.48,0.36,8.62,0.75,15.42
		C163.32,253.68,163.57,258.8,163.68,262.25z"/>
	<path class="st1" d="M204.65,210.18c0.18,5.87-0.84,11.65-3.05,17.35c-2.52,6.53-7.11,12.43-13.77,17.71
		c-0.51,0.4-1.24,0.96-2.19,1.68c-0.97,0.77-1.69,1.34-2.16,1.71c-7.47,5.91-11.92,9.19-13.36,9.84c-0.59,0.27-0.9,0.01-0.93-0.79
		c-0.1-3.41-0.14-8.68-0.09-15.8c0.04-7.12,0.01-12.4-0.09-15.84c-0.11-3.7-0.45-10.55-1-20.56c-0.14-2.57-0.37-6.4-0.69-11.5
		l-0.05-0.65c-0.04-0.59,0.27-1.21,0.92-1.86c0.65-0.65,3-2.57,7.03-5.76c6.46-5.11,10.24-8.07,11.33-8.87
		c4.99-3.66,8.7-5.29,11.14-4.9c3.23,0.55,4.96,4.42,5.18,11.63c0.06,1.88-0.25,4.16-0.91,6.84c-0.48,1.92-1.12,3.96-1.93,6.13
		c-0.71,1.9-1.07,2.8-1.07,2.71c0.01,0.22,0.28,0.37,0.82,0.43c1.46,0.15,2.63,1.3,3.53,3.43
		C204.11,205.02,204.56,207.37,204.65,210.18z M190.76,193.59c-0.08-2.74-1.01-3.87-2.78-3.39c-0.99,0.29-2.59,1.32-4.82,3.08
		c-2.19,1.73-3.27,2.85-3.26,3.36c0.02,0.61,0.01,1.55-0.02,2.84c-0.03,1.28-0.04,2.23-0.02,2.83c0.1,3.19,0.32,4.84,0.68,4.95
		c0.23,0.11,1.52-0.76,3.87-2.62C188.77,201.2,190.88,197.51,190.76,193.59z M192.49,219.61c-0.09-2.87-0.91-4.21-2.46-4.03
		c-0.99,0.13-2.58,1.06-4.77,2.79c-2.61,2.07-4.03,3.34-4.24,3.82c-0.21,0.48-0.27,2.52-0.16,6.12c0.12,3.76,0.31,5.74,0.58,5.93
		c0.28,0.19,1.74-0.76,4.39-2.86c2.19-1.73,3.72-3.22,4.59-4.47C191.89,224.81,192.57,222.38,192.49,219.61z"/>
	<path class="st1" d="M238.94,151.44c0.01,0.35-0.19,0.69-0.59,1.01c-1.52,1.2-3.83,2.82-6.93,4.85c-3.1,2.03-5.42,3.65-6.96,4.87
		c-1.94,1.54-3.08,2.55-3.39,3.03c-0.73,1.14-1.06,2.96-0.98,5.48c0.09,3.03,0.63,4.37,1.62,4.01c0.41-0.16,1.03-0.57,1.86-1.23
		c1.4-1.11,3.48-2.88,6.26-5.32c2.78-2.44,4.86-4.22,6.26-5.32c0.67-0.53,1.09,2.01,1.26,7.62c0.15,4.88,0.12,7.81-0.07,8.78
		c-0.13,0.69-0.39,1.19-0.79,1.51c0.26-0.21-0.38,0.19-1.92,1.18c-2.18,1.4-5.46,3.83-9.86,7.31c-1.42,1.12-2.22,1.77-2.4,1.95
		c-1.03,1.07-1.52,2.17-1.49,3.28c0.14,4.53,0.42,9.65,0.84,15.35c0.36,5.17,0.54,7.46,0.52,6.89c0.03,0.83-0.6,1.81-1.87,2.95
		c0.34-0.31-0.56,0.39-2.7,2.09c-3.79,3-6.23,4.72-7.34,5.17c-0.59,0.24-0.9-0.02-0.93-0.79c-0.11-3.54-0.19-8.92-0.26-16.13
		c-0.06-7.22-0.15-12.59-0.26-16.13c-0.13-4.21-0.41-9.4-0.85-15.59c-0.67-9.56-1.02-14.7-1.06-15.42l-0.05-0.55
		c-0.04-0.78,0.25-1.42,0.88-1.92c1.5-1.19,3.76-2.93,6.79-5.23c3.03-2.3,5.3-4.05,6.82-5.25c1.62-1.28,4.05-3.4,7.29-6.36
		c3.24-2.96,5.67-5.07,7.29-6.36c1.01-0.8,1.6-0.6,1.76,0.61c0.04,1.37,0.14,3.4,0.31,6.08c0.06,0.67,0.23,1.92,0.52,3.75
		C238.77,149.21,238.91,150.49,238.94,151.44z"/>
	<path class="st1" d="M284.81,166.37c0.02,0.67-0.06,1.16-0.24,1.46c-0.08,0.16-0.36,0.46-0.84,0.91c-1.23,1.17-2.97,2.64-5.22,4.42
		c-3.18,2.52-5.05,3.9-5.61,4.15s-0.85,0.04-0.88-0.63c-0.08-2.52-0.12-6.37-0.12-11.54c0-5.17-0.04-9.02-0.12-11.54
		c-0.04-1.24-0.28-1.78-0.73-1.62c-0.7,0.29-3.15,2.1-7.36,5.43c-4.23,3.35-6.7,5.43-7.4,6.25c-0.44,0.51-0.64,1.41-0.6,2.68
		c0.08,2.49,0.24,6.17,0.49,11.05c0.25,4.88,0.42,8.56,0.49,11.05c0.03,0.96-0.23,1.73-0.77,2.32c-0.64,0.7-2.54,2.31-5.7,4.81
		c-2.73,2.16-4.48,3.45-5.23,3.85c-0.59,0.31-0.9,0.04-0.93-0.78c-0.11-3.44-0.16-8.73-0.16-15.85c0-7.12-0.05-12.42-0.16-15.89
		c-0.11-3.7-0.38-9.18-0.81-16.43c-0.43-7.25-0.7-12.73-0.81-16.43c-0.02-0.7,0.18-1.22,0.61-1.56c0.63-0.5,1.58-1.2,2.84-2.1
		c1.27-0.91,2.22-1.61,2.84-2.1c0.65-0.51,1.62-1.33,2.93-2.46c1.3-1.13,2.28-1.95,2.93-2.46c0.34-0.27,0.52-0.12,0.54,0.45
		c0.07,2.39,0.07,6.06-0.01,11c-0.08,4.94-0.08,8.61-0.01,11c0.03,1.12,0.25,1.62,0.64,1.5c0.53-0.16,3.13-2.09,7.79-5.77
		c4.33-3.43,6.84-5.54,7.52-6.34c0.48-0.58,0.7-1.42,0.67-2.54c-0.07-2.29-0.25-5.71-0.53-10.24c-0.28-4.53-0.46-7.95-0.53-10.28
		c-0.03-0.99,0.21-1.68,0.71-2.08c0.59-0.46,1.48-1.13,2.69-1.98c1.21-0.86,2.12-1.53,2.72-2.01c0.59-0.46,1.48-1.22,2.68-2.27
		c1.2-1.05,2.11-1.81,2.71-2.3c0.59-0.46,0.89-0.31,0.92,0.45c0.11,3.67,0.18,9.27,0.22,16.82c0.03,7.55,0.11,13.17,0.22,16.87
		c0.11,3.48,0.37,8.6,0.79,15.39C284.44,157.82,284.71,162.93,284.81,166.37z"/>
	<path class="st1" d="M318.38,142.15c-1.74,1.38-4.01,3.11-6.81,5.19c-3.65,2.76-5.92,4.47-6.81,5.15l-9.09,7
		c-0.91,0.75-2.22,1.72-3.92,2.91c-0.59,0.31-0.9,0.04-0.93-0.79c-0.11-3.47-0.23-8.71-0.37-15.7c-0.14-6.99-0.26-12.22-0.37-15.7
		c-0.11-3.7-0.35-9.18-0.72-16.45c-0.37-7.27-0.61-12.75-0.72-16.45c-0.02-0.7,0.27-1.29,0.88-1.77c0.61-0.48,1.52-1.15,2.72-2.01
		c1.21-0.86,2.11-1.52,2.69-1.98c0.67-0.53,1.66-1.37,2.97-2.52c1.31-1.15,2.3-2,2.97-2.52c0.3-0.24,0.45-0.05,0.45,0.57l-0.01,0.65
		c-0.06,6.19-0.06,15.41,0,27.67l0.35,12.65c0.12,4.08,0.22,7.06,0.3,8.92c0.03,0.37,0.06,0.73,0.1,1.1
		c0.03,0.37,0.19,0.49,0.48,0.36c0.02-0.02,0.28-0.22,0.79-0.63c1.82-1.44,4.55-3.75,8.17-6.93c3.63-3.18,6.35-5.49,8.17-6.93
		c0.55-0.43,0.83-0.28,0.85,0.45c0.17,5.45,0.06,10.36-0.33,14.71c-0.08,0.91-0.27,1.57-0.59,1.99
		C319.53,141.22,319.12,141.58,318.38,142.15z"/>
</g>
<g>
	<path d="M643.72,303.76c-1.39,1.88-3.67,3.19-6.83,3.92c-3.76,0.84-13.8,1.26-30.13,1.26c-14.97,0-24.29-0.42-27.96-1.26
		c-3.02-0.73-3.53-3.09-1.52-7.06c7.59-15.07,10.78-23.13,9.57-24.18c-1.13-0.73-14.89-1.1-41.26-1.1c-17.8,0-27.62,0.47-29.46,1.41
		c-3.02,1.68-9.15,7.28-18.4,16.8c-8.42,8.69-14.31,13.4-17.68,14.13c-4.18,0.84-16.42,1.26-36.73,1.26
		c-16.01,0-22.9-1.52-20.65-4.55c2.01-2.72,38.58-36.16,109.72-100.33c76.99-69.4,119.15-107.55,126.46-114.46
		c4.2-3.98,7.14-5.97,8.81-5.97c2.83,0,7,0.26,12.53,0.79c5.52,0.53,9.75,0.79,12.69,0.79c2.83,0,7.12-0.18,12.89-0.55
		c5.77-0.37,10.01-0.55,12.73-0.55c1.99,0,2.54,1.73,1.66,5.18c-3,10.99-15.92,48.67-38.74,113.04
		C658.37,267.12,645.81,300.93,643.72,303.76z M638.25,160.73c-5.61,4.61-16.72,14.6-33.34,29.99
		c-17.73,16.33-27.65,25.91-29.74,28.73c-1.39,1.88,0.97,2.93,7.1,3.14c3.09,0.21,8.35,0.31,15.78,0.31
		c6.91,0,11.35-0.84,13.32-2.51c0.6-0.52,1.24-1.26,1.94-2.2c2.56-3.45,7.19-12.98,13.92-28.57
		C633.67,174.54,637.34,164.92,638.25,160.73z"/>
	<path d="M894.53,302.82c-2.4,3.25-5.12,4.87-8.15,4.87h-55.58c-3.04,0-3.2-1.83-0.49-5.5c7.82-10.57,19.95-26.43,36.38-47.57
		c16.43-21.14,28.55-37,36.38-47.57c2.25-3.03,2.97-4.66,2.19-4.87c-1.62,0.63-20.6,16.8-56.94,48.51
		c-21.32,18.63-42.61,37.21-63.85,55.74c-2.83,2.41-5.18,3.82-7.06,4.24c-0.6,0.1-2.73,0.16-6.4,0.16c-5.44,0-7.91-1.05-7.41-3.14
		c2.87-11.51,7.83-28.26,14.88-50.24c7.35-23.24,12.41-40.04,15.16-50.4c0.18-0.52,0.13-1.1-0.14-1.73
		c-1.43,0.94-2.92,2.46-4.47,4.55c-7.59,10.26-18.72,25.65-33.37,46.16c-14.66,20.52-25.78,35.9-33.37,46.16
		c-2.71,3.67-5.53,5.5-8.46,5.5h-52.44c-2.09,0-3.12-0.34-3.09-1.02c0.03-0.68,0.67-1.86,1.91-3.53
		c8.44-11.41,21.67-28.55,39.7-51.42c18.02-22.87,31.25-40.01,39.7-51.42c8.98-12.14,25.31-34.91,48.97-68.3
		c6.32-8.69,15.42-21.61,27.28-38.78l1.82-2.67c1.44-2.09,4.42-3.14,8.92-3.14c5.75,0,14.52-0.18,26.31-0.55
		c11.78-0.37,20.56-0.55,26.31-0.55c1.15,0,1.14,2.2-0.01,6.59l-28.62,100.64c-1.79,6.81-1.59,10.21,0.61,10.21
		c1.15,0,6.52-3.93,16.09-11.78c26.84-21.98,67-55.11,120.48-99.38c4.8-4.08,8.25-6.12,10.34-6.12c3.04,0,7.5,0.16,13.39,0.47
		s10.41,0.47,13.54,0.47c2.62,0,6.81-0.26,12.59-0.78c5.78-0.52,9.97-0.79,12.59-0.79c3.14,0,3.78,1.26,1.92,3.77
		c-9.14,12.35-23.24,30.8-42.29,55.34c-19.05,24.55-33.15,42.99-42.29,55.34c-8.44,11.41-20.63,28.52-36.58,51.34
		C915.04,274.45,902.89,291.51,894.53,302.82z"/>
	<path d="M1155.89,239.86c-14.25,19.26-32.08,35.22-53.49,47.89c-24.48,14.55-53.93,21.82-88.37,21.82c-2.62,0-6.35-0.05-11.19-0.16
		c-5.03,0-8.74,0-11.15,0c-38.62,0-61.02-0.79-67.18-2.36c-2.57-0.63-2.89-2.25-0.95-4.87c8.29-11.2,21.49-28.16,39.6-50.87
		c18.11-22.71,31.36-39.72,39.72-51.03c8.98-12.14,25.24-34.96,48.77-68.45c6.04-8.58,14.99-21.46,26.85-38.62l1.47-2.2
		c1.37-1.99,3.91-3.19,7.62-3.61c3.71-0.42,15.98-0.63,36.81-0.63c33.39,0,52.83,0.11,58.33,0.31c25.05,0.94,40.95,5.13,47.7,12.56
		c8.86,9.95,4.54,26.74-12.96,50.4c-4.57,6.18-11.29,12.72-20.17,19.63c-6.36,4.92-13.56,9.84-21.6,14.76
		c-7.05,4.29-10.46,6.28-10.22,5.97c-0.54,0.73-0.04,1.88,1.53,3.45c4.23,4.19,5.07,10.83,2.52,19.94
		C1167.25,221.96,1162.71,230.65,1155.89,239.86z M1093.56,239.23c6.97-9.42,7.77-15.8,2.4-19.15c-3.47-2.09-10.86-3.14-22.17-3.14
		c-13.5,0-21.2,0.5-23.08,1.49c-1.89,1-7.21,7.41-15.96,19.23c-9.14,12.35-13.51,19.18-13.12,20.49c0.39,1.31,7.44,1.96,21.16,1.96
		c11.3,0,19.91-0.89,25.84-2.67C1078.5,254.41,1086.82,248.34,1093.56,239.23z M1153.79,151.46c6.66-9,6.57-14.97-0.26-17.9
		c-3.86-1.57-11.55-2.35-23.06-2.35c-11.3,0-17.58,0.84-18.82,2.51c-1.47,1.99-3.88,5-7.23,9.03c-3.35,4.03-5.76,7.04-7.23,9.03
		c-7.75,10.47-11.2,16.33-10.34,17.58c0.45,0.94,6.75,1.41,18.89,1.41C1128.25,170.78,1144.26,164.34,1153.79,151.46z"/>
	<path d="M1412.95,138.59c-0.85,1.15-2.33,1.73-4.42,1.73c-7.85,0-19.25-0.68-34.21-2.04c-14.96-1.36-26.41-2.04-34.37-2.04
		c-10.05,0-16.18,0.37-18.4,1.1c-5.19,1.78-10.84,6.81-16.96,15.07c-7.36,9.95-9.03,15.6-5.01,16.96c1.7,0.52,4.7,0.79,9,0.79
		c7.22,0,18.32-0.39,33.29-1.18c14.97-0.79,26.07-1.18,33.29-1.18c3.45,0-1.63,9.21-15.27,27.63
		c-11.85,16.01-19.32,25.33-22.41,27.95c-2.13,1.88-4.24,2.83-6.33,2.83c1.36,0-1.67-0.37-9.08-1.1c-10.43-1.04-27-1.57-49.71-1.57
		c-7.33,0-11.5,0.05-12.52,0.16c-5.96,0.84-10.29,3.09-13,6.75c-11,14.86-23.03,31.98-36.11,51.34
		c-11.89,17.48-17.13,25.28-15.74,23.39c-2.01,2.72-6.47,4.29-13.38,4.71c1.86-0.11-2.76-0.16-13.86-0.16
		c-19.57,0-31.68-0.68-36.33-2.04c-2.5-0.73-2.81-2.35-0.95-4.87c8.6-11.62,21.9-29.07,39.92-52.36
		c18.02-23.29,31.33-40.74,39.92-52.36c10.22-13.82,22.45-31.19,36.69-52.13c22.05-32.34,33.91-49.72,35.59-52.13l1.24-1.88
		c1.83-2.61,4.37-3.92,7.61-3.92c7.75,0,19.33,0.16,34.74,0.47c15.41,0.31,27.05,0.47,34.9,0.47c8.37,0,21.42-0.63,39.15-1.88
		c17.73-1.26,30.78-1.88,39.15-1.88c5.23,0,6.58,2.15,4.03,6.44c-3.33,4.5-8.12,11.25-14.36,20.25c-1.5,2.3-4.11,6.75-7.83,13.35
		C1418.04,131,1415.28,135.45,1412.95,138.59z"/>
	<path d="M1520.66,302.82c-1.63,2.2-3.1,3.56-4.43,4.08c-0.65,0.31-2.31,0.58-4.98,0.79c-6.85,0.63-16.08,0.94-27.7,0.94
		c-16.43,0-25.86-0.31-28.27-0.94c-2.42-0.63-2.81-2.04-1.18-4.24c6.12-8.27,15.71-20.7,28.77-37.29
		c13.06-16.59,22.65-29.02,28.77-37.29c3.02-4.08,3.61-6.44,1.77-7.07c-2.94-0.84-15.3-1.26-37.07-1.26
		c-21.88,0-34.96,0.42-39.24,1.26c-2.69,0.53-5.58,2.88-8.68,7.07c-6.04,8.16-14.82,20.39-26.34,36.66
		c-11.52,16.28-20.3,28.5-26.34,36.66c-2.32,3.14-5.09,4.97-8.31,5.5c-3.82,0.63-13.89,0.94-30.21,0.94
		c-14.13,0-22.9-0.31-26.31-0.94c-2.65-0.52-2.97-2.14-0.95-4.87c8.36-11.3,21.54-28.36,39.52-51.18
		c17.98-22.82,31.2-39.93,39.64-51.34c8.98-12.14,21.96-30.38,38.92-54.72s29.93-42.57,38.92-54.72c1.7-2.3,3.65-3.45,5.85-3.45
		c3.24,0,8.02,0.16,14.33,0.47c6.31,0.31,11.09,0.47,14.33,0.47c3.35,0,8.52-0.16,15.5-0.47c6.98-0.31,12.15-0.47,15.5-0.47
		c1.78,0,1.97,0.94,0.58,2.83c-5.81,7.85-15.08,19.6-27.81,35.25c-12.73,15.65-22,27.4-27.81,35.25c-2.71,3.67-3.3,5.81-1.78,6.44
		c2.1,0.84,15.19,1.26,39.26,1.26c22.4,0,35.69-0.42,39.87-1.26c2.98-0.63,5.82-2.77,8.53-6.44c5.58-7.54,13.63-18.92,24.17-34.15
		c10.54-15.23,18.63-26.66,24.29-34.31c2.4-3.24,4.91-4.87,7.53-4.87c3.03,0,7.55,0.16,13.54,0.47c5.99,0.31,10.56,0.47,13.7,0.47
		c3.04,0,7.78-0.16,14.24-0.47c6.46-0.31,11.26-0.47,14.4-0.47c3.04,0,3.62,1.26,1.77,3.77c-8.91,12.04-22.84,30.2-41.81,54.48
		c-18.96,24.28-32.94,42.5-41.92,54.64c-8.44,11.41-20.56,28.52-36.34,51.34C1541.09,274.45,1529.02,291.51,1520.66,302.82z"/>
	<path d="M1688.26,310.35c-9,0-20.57-0.21-34.7-0.63c-18.53-0.42-30.06-0.68-34.59-0.79l-46.48-0.63c-4.79,0.1-11.38-0.1-19.79-0.63
		c-2.65-0.52-2.97-2.14-0.95-4.87c8.44-11.41,21.27-28.5,38.48-51.26c17.21-22.76,30.04-39.85,38.48-51.26
		c8.98-12.14,22.07-30.33,39.27-54.56c17.2-24.23,30.29-42.42,39.27-54.56c1.7-2.3,4.13-3.45,7.27-3.45s7.71,0.16,13.7,0.47
		c5.99,0.31,10.51,0.47,13.55,0.47c3.45,0,8.71-0.18,15.79-0.55c7.07-0.37,12.34-0.55,15.79-0.55c1.57,0,1.56,1-0.01,2.98
		l-1.67,2.04c-15.82,19.68-39.11,49.25-69.88,88.71l-30.83,41.45c-9.92,13.4-17.1,23.19-21.57,29.36c-0.83,1.26-1.65,2.51-2.47,3.77
		c-0.83,1.26-0.62,2.04,0.61,2.35c0.1,0,1.46,0,4.08,0c9.42,0,23.89-0.5,43.42-1.49c19.52-0.99,34-1.49,43.42-1.49
		c2.83,0,3.35,1.2,1.57,3.61c-13.24,17.9-25.98,33.34-38.2,46.32c-2.54,2.72-4.84,4.34-6.9,4.87
		C1694.24,310.25,1692.02,310.35,1688.26,310.35z"/>
</g>
</svg>
