<?xml version="1.0" encoding="utf-8"?>
<!-- Generator: Adobe Illustrator 23.1.0, SVG Export Plug-In . SVG Version: 6.00 Build 0)  -->
<svg version="1.1" id="Layer_1" xmlns="http://www.w3.org/2000/svg" xmlns:xlink="http://www.w3.org/1999/xlink" x="0px" y="0px"
	 viewBox="0 0 1897.72 426.36" style="enable-background:new 0 0 1897.72 426.36;" xml:space="preserve">
<style type="text/css">
	.st0{clip-path:url(#SVGID_2_);}
	.st1{fill:#FFFFFF;}
	.st2{font-family:'BerlinSansFBDemi-Bold';}
	.st3{font-size:98px;}
	.st4{fill:none;}
	.st5{font-size:400px;}
</style>
<g>
	<defs>
		<rect id="SVGID_1_" x="-20.29" width="419" height="452"/>
	</defs>
	<clipPath id="SVGID_2_">
		<use xlink:href="#SVGID_1_"  style="overflow:visible;"/>
	</clipPath>
	<g class="st0">
		<path d="M313.76,7.4c8.3,32.09,26.58,54.92,61.23,62.21c-2.14,4.99-4.21,9.6-6.11,14.29c-12.84,31.74-17.32,64.33-8.39,97.81
			c3.51,13.15,8.97,25.77,13.23,38.73c16.25,49.39,5.51,92.94-29.23,130.82c-20.56,22.42-46.97,34.49-76.3,40.79
			c-17.89,3.84-35.79,7.69-53.69,11.48c-4.73,1-8.53,3.26-11.66,7.02c-3.27,3.93-6.94,7.52-10.77,11.61
			c-3.1-3.25-6.18-5.84-8.47-9.02c-5.2-7.21-12.7-9.58-20.84-11.34c-21.46-4.64-43.29-8.16-64.19-14.66
			c-45.75-14.22-76.66-44.61-90.65-90.78c-8.85-29.19-5.47-57.95,6.07-86.02c6.34-15.41,11.88-31.12,13.54-47.89
			c2.66-26.94-2.06-52.75-12.02-77.73c-1.96-4.93-4.18-9.75-6.46-15.04c34.45-7.27,53.1-29.92,61.27-63.24
			c18.31,15.41,36.5,30.3,61.58,29.3c24.64-0.99,43.55-13.96,60.82-32.77c2.82,3.36,5.07,6.7,7.95,9.38
			c13.89,12.94,29.87,21.54,49.13,23.33c13.57,1.26,25.8-2.75,37.07-9.61C295.91,20.55,304.33,14,313.76,7.4z M76.81,32.41
			c-1.13,2.37-2.39,5.05-3.69,7.71C64.95,56.7,52.87,69.34,35.71,76.65c-5.73,2.44-6.8,1.1-3.97,8.74
			c11.92,32.2,15.38,65.14,7.03,98.68c-2.96,11.9-7.46,23.47-11.85,34.97c-9.19,24.06-12.06,48.54-4.55,73.43
			c12.41,41.11,40.94,66.91,80.74,79.88c19.52,6.36,40.24,8.96,60.37,13.49c9.66,2.17,19.8,3.42,26.93,11.73
			c0.6,0.7,3.88,0.35,4.71-0.58c4.1-4.6,9.31-7.03,15.06-8.32c12.5-2.8,25.04-5.39,37.59-7.92c20.25-4.08,40.45-8.11,58.6-18.88
			c34.18-20.27,55.67-49.01,60.05-89.23c2.36-21.67-3.27-42.02-11.46-61.72c-15.3-36.81-17.32-74.25-6.2-112.45
			c1.89-6.48,4.29-12.8,6.55-19.52c-23.73-7.97-38.21-24.99-47.44-47.74c-1.84,1.33-3.16,2.28-4.48,3.22
			c-15.01,10.74-31.44,17.45-50.19,16.77c-22.01-0.79-40.99-9.34-57.47-23.64c-2.55-2.21-3.91-2.14-6.6,0.02
			c-5.68,4.57-11.58,9.07-17.97,12.52c-21.47,11.59-44.02,15.36-67.3,6.18C94.69,42.69,86.21,37.3,76.81,32.41z"/>
		<path class="st1" d="M76.81,32.41c9.39,4.89,17.87,10.28,27.05,13.9c23.28,9.18,45.84,5.41,67.3-6.18
			c6.39-3.45,12.29-7.95,17.97-12.52c2.69-2.16,4.05-2.23,6.6-0.02c16.49,14.3,35.47,22.85,57.47,23.64
			c18.75,0.68,35.18-6.03,50.19-16.77c1.32-0.94,2.63-1.89,4.48-3.22c9.24,22.75,23.71,39.78,47.44,47.74
			c-2.27,6.71-4.67,13.04-6.55,19.52c-11.12,38.19-9.1,75.64,6.2,112.45c8.19,19.7,13.82,40.05,11.46,61.72
			c-4.38,40.22-25.87,68.95-60.05,89.23c-18.15,10.77-38.35,14.79-58.6,18.88c-12.55,2.53-25.1,5.12-37.59,7.92
			c-5.74,1.29-10.96,3.71-15.06,8.32c-0.83,0.93-4.11,1.29-4.71,0.58c-7.13-8.32-17.27-9.56-26.93-11.73
			c-20.13-4.52-40.86-7.13-60.37-13.49c-39.8-12.97-68.33-38.77-80.74-79.88c-7.51-24.88-4.65-49.37,4.55-73.43
			c4.39-11.49,8.89-23.06,11.85-34.97c8.34-33.54,4.89-66.48-7.03-98.68c-2.83-7.64-1.76-6.3,3.97-8.74
			c17.15-7.31,29.24-19.95,37.41-36.54C74.43,37.46,75.68,34.78,76.81,32.41z M33.09,267.52c0.73,5.33,1.04,9.51,1.91,13.57
			c6.51,30.49,24.85,52.04,51.18,67.56c3.01,1.77,5.28,1.67,8.08-0.49c10.55-8.14,21.27-16.06,31.92-24.07
			c64.84-48.75,129.64-97.57,194.62-146.14c4.79-3.58,6.39-7.02,5.59-12.85c-3.42-24.86-0.36-49.18,7.26-72.96
			c1.02-3.17,0.11-4.6-2.33-6.59c-7.58-6.17-15.23-12.36-22-19.37c-3.49-3.61-5.17-3.91-9.14-0.91
			c-64.73,48.92-129.59,97.67-194.44,146.44c-23.03,17.32-46.11,34.58-69.11,51.94C35.07,264.84,33.93,266.58,33.09,267.52z
			 M111.45,358.12c0.21,0.6,0.43,1.19,0.64,1.79c18.26,3.65,36.56,7.13,54.77,11.04c8.22,1.76,16.84,2.77,23.56,8.84
			c0.66,0.6,2.64,0.24,3.75-0.26c4.2-1.85,8.1-4.75,12.46-5.8c13.75-3.3,27.65-5.96,41.5-8.85c15.97-3.32,31.9-6.59,46.59-14.28
			c45-23.55,67.79-71.52,49.87-121.36c-4.11-11.43-8.08-22.92-12.16-34.37c-0.2-0.55-0.78-0.96-1.51-1.81
			C257.63,248.18,184.54,303.15,111.45,358.12z M36.69,238.05c0.55,0.32,1.11,0.63,1.66,0.95
			c75.9-57.12,151.81-114.24,228.49-171.95c-1.87-0.53-2.18-0.69-2.5-0.7c-1-0.02-2-0.04-3,0.04c-24.13,1.83-45.67-5.57-65.5-18.67
			c-3.03-2-4.84-1.88-7.82,0.04c-32.23,20.71-65.78,26.35-101.12,8.03c-2.88-1.49-4.35-0.96-6.04,1.67
			c-6.94,10.78-15.62,19.98-26.59,26.67c-4.08,2.49-4.62,4.89-3.29,9.33c7.44,24.89,9.79,50.22,6.31,76.1
			c-2.31,17.18-7.7,33.36-13.92,49.39C40.93,225.24,38.9,231.68,36.69,238.05z"/>
		<path d="M33.09,267.52c0.84-0.93,1.98-2.68,3.55-3.86c23-17.36,46.08-34.62,69.11-51.94c64.84-48.77,129.71-97.52,194.44-146.44
			c3.97-3,5.65-2.7,9.14,0.91c6.77,7.01,14.42,13.2,22,19.37c2.44,1.98,3.34,3.42,2.33,6.59c-7.62,23.78-10.67,48.1-7.26,72.96
			c0.8,5.83-0.81,9.27-5.59,12.85c-64.98,48.57-129.78,97.39-194.62,146.14c-10.65,8.01-21.37,15.93-31.92,24.07
			c-2.8,2.16-5.07,2.26-8.08,0.49C59.85,333.13,41.51,311.58,35,281.09C34.13,277.03,33.82,272.85,33.09,267.52z"/>
		<path d="M111.45,358.12c73.09-54.97,146.19-109.94,219.46-165.05c0.73,0.85,1.32,1.26,1.51,1.81
			c4.08,11.45,8.05,22.93,12.16,34.37c17.92,49.84-4.87,97.81-49.87,121.36c-14.7,7.69-30.62,10.96-46.59,14.28
			c-13.85,2.88-27.75,5.54-41.5,8.85c-4.36,1.05-8.26,3.95-12.46,5.8c-1.11,0.49-3.09,0.85-3.75,0.26
			c-6.72-6.07-15.34-7.07-23.56-8.84c-18.21-3.91-36.5-7.39-54.77-11.04C111.87,359.31,111.66,358.72,111.45,358.12z"/>
		<path d="M36.69,238.05c2.21-6.37,4.24-12.81,6.67-19.09c6.22-16.02,11.61-32.21,13.92-49.39c3.48-25.89,1.13-51.21-6.31-76.1
			c-1.33-4.44-0.79-6.84,3.29-9.33c10.97-6.7,19.65-15.89,26.59-26.67c1.7-2.64,3.16-3.17,6.04-1.67
			c35.34,18.31,68.89,12.68,101.12-8.03c2.98-1.91,4.78-2.04,7.82-0.04c19.83,13.1,41.37,20.5,65.5,18.67c0.99-0.08,2-0.06,3-0.04
			c0.32,0.01,0.64,0.17,2.5,0.7C190.16,124.76,114.26,181.88,38.35,239C37.8,238.69,37.24,238.37,36.69,238.05z"/>
	</g>
</g>
<text transform="matrix(0.6348 -0.5024 0.0305 0.9995 72.4747 335.9474)" class="st1 st2 st3">AMBFHL</text>
<polygon class="st4" points="1730.06,383.1 374.09,383.1 555.15,81 1911.12,81 "/>
<text transform="matrix(0.8039 0 -0.5948 0.8039 419.2876 307.6833)" class="st2 st5">AMBFHL</text>
</svg>
